<svg id="instagram" viewBox="0 0 25 25" fill="none" xmlns="http://www.w3.org/2000/svg">
<g clip-path="url(#clip0)">
<path d="M12.1266 8.0847C9.89931 8.0847 8.08167 9.90234 8.08167 12.1296C8.08167 14.3569 9.89931 16.1746 12.1266 16.1746C14.3539 16.1746 16.1715 14.3569 16.1715 12.1296C16.1715 9.90234 14.3539 8.0847 12.1266 8.0847ZM24.2584 12.1296C24.2584 10.4546 24.2735 8.79476 24.1795 7.12278C24.0854 5.18072 23.6424 3.45715 22.2222 2.03702C20.7991 0.613863 19.0785 0.173867 17.1365 0.0797985C15.4615 -0.0142698 13.8016 0.000902582 12.1296 0.000902582C10.4546 0.000902582 8.79476 -0.0142698 7.12278 0.0797985C5.18072 0.173867 3.45715 0.616897 2.03702 2.03702C0.613863 3.46018 0.173867 5.18072 0.0797985 7.12278C-0.0142698 8.7978 0.000902582 10.4576 0.000902582 12.1296C0.000902582 13.8016 -0.0142698 15.4645 0.0797985 17.1365C0.173867 19.0785 0.616898 20.8021 2.03702 22.2222C3.46019 23.6454 5.18072 24.0854 7.12278 24.1795C8.7978 24.2735 10.4576 24.2584 12.1296 24.2584C13.8047 24.2584 15.4645 24.2735 17.1365 24.1795C19.0785 24.0854 20.8021 23.6424 22.2222 22.2222C23.6454 20.7991 24.0854 19.0785 24.1795 17.1365C24.2766 15.4645 24.2584 13.8047 24.2584 12.1296ZM12.1266 18.3533C8.68249 18.3533 5.90292 15.5737 5.90292 12.1296C5.90292 8.68552 8.68249 5.90596 12.1266 5.90596C15.5707 5.90596 18.3503 8.68552 18.3503 12.1296C18.3503 15.5737 15.5707 18.3533 12.1266 18.3533ZM18.6052 7.10457C17.801 7.10457 17.1517 6.45519 17.1517 5.65106C17.1517 4.84693 17.801 4.19756 18.6052 4.19756C19.4093 4.19756 20.0587 4.84693 20.0587 5.65106C20.0589 5.84201 20.0215 6.03112 19.9485 6.20758C19.8756 6.38404 19.7685 6.54436 19.6335 6.67938C19.4985 6.8144 19.3381 6.92146 19.1617 6.99442C18.9852 7.06738 18.7961 7.10481 18.6052 7.10457Z" fill="#1A121D"/>
</g>
<defs>
<clipPath id="clip0">
<rect width="25" height="25" fill="white"/>
</clipPath>
</defs>
</svg>
