<svg id="doubleErrow" viewBox="0 0 22 27" fill="none" xmlns="http://www.w3.org/2000/svg">
<path fill-rule="evenodd" clip-rule="evenodd" d="M11.7542 8.39823C11.7038 8.03215 11.3854 7.75 11 7.75C10.5797 7.75 10.2389 8.08579 10.2389 8.5V21.6833L5.42544 16.9211L5.34022 16.8483C5.04271 16.6299 4.61982 16.6532 4.34904 16.9189C4.05119 17.2112 4.05019 17.6861 4.34682 17.9796L10.4525 24.021C10.4814 24.0505 10.5127 24.0776 10.5461 24.1021L10.5467 24.1026C10.8451 24.3215 11.2694 24.2972 11.5399 24.0295L17.6532 17.9795L17.7267 17.8953C17.9472 17.6012 17.9217 17.1846 17.6509 16.9189C17.353 16.6266 16.8711 16.6276 16.5745 16.9212L11.7612 21.6847V8.5L11.7542 8.39823Z" fill="white"/>
<path fill-rule="evenodd" clip-rule="evenodd" d="M11.7542 3.39823C11.7038 3.03215 11.3854 2.75 11 2.75C10.5797 2.75 10.2389 3.08579 10.2389 3.5V16.6833L5.42544 11.9211L5.34022 11.8483C5.04271 11.6299 4.61982 11.6532 4.34904 11.9189C4.05119 12.2112 4.05019 12.6861 4.34682 12.9796L10.4525 19.021C10.4814 19.0505 10.5127 19.0776 10.5461 19.1021L10.5467 19.1026C10.8451 19.3215 11.2694 19.2972 11.5399 19.0295L17.6532 12.9795L17.7267 12.8953C17.9472 12.6012 17.9217 12.1846 17.6509 11.9189C17.353 11.6266 16.8711 11.6276 16.5745 11.9212L11.7612 16.6847V3.5L11.7542 3.39823Z" fill="white"/>
</svg>
