<svg id="double-arrow-right" viewBox="0 0 31 26" fill="none" xmlns="http://www.w3.org/2000/svg">
<path fill-rule="evenodd" clip-rule="evenodd" d="M9.64246 12.1079C9.22215 12.1674 8.89819 12.5438 8.89819 12.9992C8.89819 13.496 9.28373 13.8987 9.7593 13.8987L24.8959 13.8987L19.4279 19.5876L19.3443 19.6883C19.0935 20.0399 19.1203 20.5397 19.4254 20.8597C19.761 21.2117 20.3062 21.2129 20.6432 20.8624L27.5895 13.6363L27.5898 13.6359C27.6194 13.6051 27.6468 13.572 27.6718 13.537L27.6733 13.5353C27.9247 13.1826 27.8967 12.6811 27.5894 12.3615L20.6431 5.13661L20.5464 5.04973C20.2087 4.7892 19.7304 4.81931 19.4253 5.13935C19.0898 5.49138 19.0909 6.06092 19.428 6.41145L24.8969 12.0997L9.7593 12.0997L9.64246 12.1079Z" fill="#1A121D"/>
<path fill-rule="evenodd" clip-rule="evenodd" d="M3.90173 12.1079C3.48142 12.1674 3.15747 12.5438 3.15747 12.9992C3.15747 13.496 3.543 13.8987 4.01858 13.8987L19.1552 13.8987L13.6872 19.5876L13.6036 19.6883C13.3528 20.0399 13.3796 20.5397 13.6847 20.8597C14.0202 21.2117 14.5655 21.2129 14.9024 20.8624L21.8487 13.6363L21.8491 13.6359C21.8786 13.6051 21.9061 13.572 21.9311 13.537L21.9325 13.5353C22.1839 13.1826 22.156 12.6811 21.8487 12.3615L14.9024 5.13661L14.8056 5.04973C14.468 4.7892 13.9897 4.81931 13.6846 5.13935C13.349 5.49138 13.3502 6.06092 13.6872 6.41145L19.1562 12.0997L4.01858 12.0997L3.90173 12.1079Z" fill="#1A121D"/>
</svg>
