<svg id="google"  viewBox="0 0 25 25" fill="none" xmlns="http://www.w3.org/2000/svg">
<g clip-path="url(#clip0)">
<path fill-rule="evenodd" clip-rule="evenodd" d="M17.5451 6.82055C16.2545 5.58961 14.5321 4.91903 12.75 4.94659C9.48893 4.94659 6.71933 7.14664 5.73181 10.1091C5.2082 11.6616 5.2082 13.3427 5.73181 14.8952H5.73639C6.72849 17.8531 9.49351 20.0532 12.7546 20.0532C14.4379 20.0532 15.8831 19.6226 17.0032 18.8621V18.859C18.3214 17.9863 19.2216 16.613 19.5018 15.0605H12.75V10.247H24.5404C24.6874 11.083 24.7563 11.9373 24.7563 12.787C24.7563 16.5889 23.3975 19.8033 21.0334 21.9803L21.0359 21.9822C18.9644 23.893 16.1213 24.9999 12.75 24.9999C8.02373 24.9999 3.70167 22.3359 1.57968 18.1149C-0.19323 14.5828 -0.193226 10.4215 1.57969 6.88948C3.70168 2.66387 8.02373 -0.000134202 12.75 -0.000134202C15.8549 -0.0368786 18.8542 1.12976 21.1139 3.25175L17.5451 6.82055Z" fill="#1A121D"/>
</g>
<defs>
<clipPath id="clip0">
<rect width="25" height="25" fill="white"/>
</clipPath>
</defs>
</svg>
