<svg width="190" height="45" viewBox="0 0 190 45" fill="none" xmlns="http://www.w3.org/2000/svg">
<path d="M30.382 28.1255H0.948639C0.69694 28.1253 0.455649 28.0263 0.277773 27.8505C0.0998973 27.6747 -1.47965e-05 27.4363 -1.46306e-05 27.1878V17.8165C-0.000158119 17.6935 0.0242817 17.5716 0.0719052 17.4579C0.119529 17.3442 0.1894 17.2409 0.277519 17.1539C0.365639 17.0669 0.470275 16.9979 0.585436 16.9509C0.700596 16.9038 0.82402 16.8797 0.948639 16.8798H30.382C32.4407 16.8798 34.1799 15.5879 34.1799 14.0665C34.1799 12.5452 32.4363 11.2489 30.382 11.2489H0.948639C0.69694 11.2486 0.455649 11.1497 0.277773 10.9739C0.0998973 10.798 -1.47965e-05 10.5597 -1.46306e-05 10.3112V0.937772C-0.00015793 0.814673 0.0242742 0.692752 0.0718844 0.578983C0.119494 0.465214 0.189349 0.361828 0.277454 0.274734C0.365558 0.18764 0.470186 0.118545 0.585353 0.0714048C0.70052 0.0242643 0.823969 -8.13176e-08 0.948639 0H30.382C38.7563 0 45.5735 6.30814 45.5735 14.0622C45.5735 21.8163 38.7607 28.1255 30.382 28.1255Z" fill="#9614BB"/>
<path d="M33.0423 33.75H0.570031C0.255675 33.75 0.000839233 34.0016 0.000839233 34.312V44.438C0.000839233 44.7484 0.255675 45 0.570031 45H33.0423C33.3567 45 33.6115 44.7484 33.6115 44.438V34.312C33.6115 34.0016 33.3567 33.75 33.0423 33.75Z" fill="#9614BB"/>
<path d="M60.7484 23.0452H55.4294V0.0671427C55.8285 0.0671427 56.9553 0.0563741 58.8097 0.034841C60.6641 0.0133078 61.9108 0.00218262 62.5498 0.00146484C65.8515 0.00146484 68.2439 0.719237 69.7268 2.15478C71.1755 3.62169 71.9748 5.59661 71.949 7.64529C71.9232 9.69397 71.0745 11.6487 69.5894 13.0796C68.0149 14.5791 65.9311 15.3288 63.3381 15.3288C62.473 15.3422 61.6078 15.3099 60.7462 15.2319L60.7484 23.0452ZM63.0764 4.9261C62.9878 4.9261 62.2121 4.94763 60.7495 4.9907V10.2426C61.5542 10.3491 62.3649 10.4042 63.1768 10.4074C63.9603 10.4251 64.729 10.195 65.3707 9.7506C65.6946 9.49416 65.9491 9.16252 66.1116 8.78528C66.2741 8.40803 66.3395 7.99693 66.3019 7.58867C66.3019 5.81578 65.226 4.92969 63.0743 4.93041L63.0764 4.9261Z" fill="white"/>
<path d="M98.2476 0.0675851V13.5592C98.2476 16.8609 97.3447 19.3337 95.539 20.9774C93.6815 22.6368 91.2439 23.5192 88.7403 23.4386C85.6603 23.4386 83.2003 22.574 81.3604 20.8449C79.5206 19.1158 78.601 16.6101 78.6017 13.3277V0.0675851H83.9196V12.2123C83.9196 16.412 85.5265 18.5122 88.7403 18.5129C90.2669 18.5129 91.3471 18.004 91.981 16.9862C92.6149 15.9684 92.9307 14.4751 92.9286 12.5062V0.0654297L98.2476 0.0675851Z" fill="white"/>
<path d="M111.876 23.0447H106.559V0.0666544C107.046 0.0666544 108.442 0.0558859 110.747 0.0343527C113.052 0.0128195 114.293 0.00169433 114.469 0.000976562C117.485 0.000976562 119.674 0.65738 121.036 1.97018C122.398 3.28299 123.08 5.07742 123.08 7.35347C123.08 10.4822 121.772 12.6923 119.155 13.9835L125.937 23.0436H119.489L113.837 14.9999H111.874L111.876 23.0447ZM114.203 4.92561C114.115 4.92561 113.339 4.94714 111.876 4.99021V10.0785H113.805C116.221 10.0785 117.429 9.19241 117.43 7.42023C117.43 5.75715 116.354 4.92561 114.203 4.92561Z" fill="white"/>
<path d="M136.909 23.0447H131.59V0.0666544C131.989 0.0666544 133.116 0.0558859 134.97 0.0343527C136.825 0.0128195 138.071 0.00169433 138.71 0.000976562C142.014 0.000976562 144.407 0.718749 145.888 2.15429C147.337 3.62121 148.136 5.59626 148.11 7.64503C148.085 9.6938 147.235 11.6485 145.75 13.0791C144.175 14.5786 142.092 15.3283 139.5 15.3283C138.634 15.3418 137.769 15.3094 136.907 15.2314L136.909 23.0447ZM139.237 4.92561C139.148 4.92561 138.372 4.94714 136.909 4.99021V10.2421C137.714 10.3487 138.524 10.4037 139.336 10.4069C140.12 10.4243 140.888 10.1942 141.53 9.75011C141.854 9.49371 142.108 9.16197 142.27 8.78465C142.432 8.40733 142.497 7.99622 142.458 7.58818C142.458 5.81529 141.383 4.9292 139.233 4.92992L139.237 4.92561Z" fill="white"/>
<path d="M155.094 23.0454V0.0673828H160.413V18.1229H169.887V23.0465L155.094 23.0454Z" fill="white"/>
<path d="M175.87 23.0454V0.0673828H189.672V4.99094H181.189V9.02841H188.669V13.952H181.189V18.1208H189.999V23.0443L175.87 23.0454Z" fill="white"/>
<path d="M61.9789 44.8272H55.4278V33.9185H61.8197V35.7111H57.3698V38.4232H61.3454V40.2158H57.3698V43.0356H61.9778L61.9789 44.8272Z" fill="#CACACA"/>
<path d="M75.693 33.9199H77.9643L74.2417 39.2645L78.1072 44.8275H75.8348L72.9801 40.7298L70.1385 44.8275H67.8661L71.7316 39.2645L68.0406 33.9199H70.3119L73.027 37.8637L75.693 33.9199Z" fill="#CACACA"/>
<path d="M93.4466 44.8286H91.522V40.1699H86.4724V44.8286H84.5304V33.9199H86.4724V38.3805H91.522V33.9231H93.4466V44.8286Z" fill="#CACACA"/>
<path d="M103.422 44.8286H101.481V33.9199H103.422V44.8286Z" fill="#CACACA"/>
<path d="M111.453 44.8137V33.9535C112.59 33.9004 113.653 33.8745 114.643 33.876C115.608 33.805 116.569 34.0577 117.37 34.593C117.666 34.8303 117.901 35.133 118.058 35.4768C118.214 35.8205 118.286 36.1956 118.268 36.5719C118.299 37.0955 118.163 37.6155 117.88 38.0594C117.598 38.5033 117.181 38.849 116.69 39.0482V39.0784C117.268 39.2029 117.781 39.5276 118.137 39.9938C118.493 40.46 118.668 41.0367 118.63 41.6193C118.658 42.0823 118.572 42.545 118.38 42.9682C118.188 43.3915 117.895 43.7627 117.527 44.0504C116.65 44.6533 115.594 44.9493 114.528 44.8913C113.267 44.892 112.242 44.8661 111.453 44.8137ZM114.609 35.6622C114.147 35.6622 113.742 35.6783 113.393 35.7084V38.4679H114.701C115.131 38.4889 115.554 38.3558 115.893 38.0932C116.046 37.9595 116.166 37.7929 116.244 37.6063C116.322 37.4197 116.355 37.218 116.342 37.0166C116.354 36.8253 116.318 36.6341 116.239 36.4593C116.16 36.2844 116.039 36.131 115.887 36.0121C115.511 35.7595 115.062 35.6379 114.609 35.6665V35.6622ZM114.768 40.1346H113.393V43.0179C113.818 43.0652 114.244 43.0911 114.672 43.0954C116.018 43.0954 116.691 42.5703 116.691 41.5202C116.703 41.3196 116.663 41.1192 116.575 40.938C116.487 40.7568 116.354 40.6007 116.187 40.4845C115.762 40.228 115.268 40.106 114.77 40.1346H114.768Z" fill="#CACACA"/>
<path d="M128.101 44.8286H126.16V33.9199H128.101V44.8286Z" fill="#CACACA"/>
<path d="M138.343 35.7126H134.76V33.9199H143.866V35.7126H140.284V44.8286H138.343V35.7126Z" fill="#CACACA"/>
<path d="M154.723 41.9335C154.721 41.7384 154.673 41.5465 154.585 41.3722C154.496 41.198 154.368 41.046 154.211 40.9279C153.832 40.6214 153.41 40.3718 152.958 40.1871C152.464 39.9804 151.972 39.7522 151.483 39.5024C150.988 39.2475 150.56 38.8812 150.235 38.4332C149.885 37.9444 149.705 37.3565 149.723 36.758C149.716 36.3572 149.795 35.9596 149.956 35.5915C150.116 35.2234 150.354 34.8932 150.654 34.623C151.344 34.0232 152.243 33.7106 153.162 33.7509C153.742 33.7078 154.325 33.79 154.87 33.9918C155.416 34.1935 155.91 34.5099 156.319 34.919L155.277 36.3521C155.022 36.0933 154.717 35.8882 154.38 35.749C154.042 35.6099 153.68 35.5396 153.315 35.5424C152.912 35.5202 152.514 35.6341 152.186 35.8654C152.051 35.9677 151.943 36.1003 151.87 36.2521C151.798 36.404 151.763 36.5707 151.768 36.7386C151.766 36.9184 151.803 37.0967 151.877 37.2608C151.94 37.4036 152.021 37.5372 152.121 37.6581C152.251 37.7927 152.4 37.908 152.563 38.0004C152.721 38.0995 152.89 38.1899 153.052 38.2728C153.174 38.3288 153.379 38.4214 153.66 38.5463L154.26 38.8112C154.682 38.9973 155.089 39.2162 155.476 39.4658C155.873 39.7028 156.197 40.0418 156.413 40.4466C156.656 40.8964 156.779 41.4001 156.769 41.9098C156.78 42.3366 156.69 42.76 156.507 43.1465C156.323 43.533 156.051 43.8719 155.711 44.1363C154.964 44.7235 154.03 45.0288 153.076 44.9976C152.321 44.9945 151.575 44.8414 150.882 44.5476C150.271 44.3094 149.767 43.8613 149.464 43.2857L150.569 41.9765C150.869 42.3663 151.262 42.677 151.713 42.8809C152.148 43.0896 152.625 43.1999 153.11 43.2039C153.527 43.2232 153.939 43.1025 154.278 42.8615C154.422 42.7526 154.537 42.6117 154.614 42.4504C154.691 42.289 154.729 42.1119 154.723 41.9335Z" fill="#CACACA"/>
</svg>
