<svg id="triangle"  viewBox="0 0 380 380" fill="none" xmlns="http://www.w3.org/2000/svg">
<circle cx="190" cy="190" r="189" stroke="#DADADA" stroke-width="2" stroke-dasharray="17 17"/>
<path d="M188.5 2L348 291H32L188.5 2Z" fill="url(#paint0_linear)"/>
<path d="M197.614 185.676H169.852C169.614 185.676 169.387
185.582 169.219 185.414C169.051 185.246 168.957 185.018 168.957
 184.781V175.836C168.957 175.719 168.98 175.602 169.025 175.494C169.07
  175.385 169.136 175.287 169.219 175.204C169.302 175.12 169.401 175.055
  169.509 175.01C169.618 174.965 169.734 174.942 169.852 174.942H197.614C199.556
  174.942 201.197 173.709 201.197 172.257C201.197 170.804 199.552 169.567 197.614
  169.567H169.852C169.614 169.567 169.387 169.472 169.219 169.305C169.051 169.137
  168.957 168.909 168.957 168.672V159.725C168.957 159.607 168.98 159.491 169.025
   159.382C169.07 159.274 169.136 159.175 169.219 159.092C169.302 159.009 169.401
   158.943 169.509 158.898C169.618 158.853 169.734 158.83 169.852 158.83H197.614C205.513
   158.83 211.944 164.851 211.944 172.253C211.944 179.654 205.517 185.676 197.614 185.676Z" fill="#9614BB"/>
<path d="M200.124 191.045H169.495C169.198 191.045 168.958 191.285 168.958 191.581V201.247C168.958 201.543 169.198 201.783 169.495 201.783H200.124C200.42 201.783 200.661 201.543 200.661 201.247V191.581C200.661 191.285 200.42 191.045 200.124 191.045Z" fill="#9614BB"/>
<defs>
<linearGradient id="paint0_linear" x1="190" y1="2" x2="190" y2="291" gradientUnits="userSpaceOnUse">
<stop stop-color="#B735DB"/>
<stop offset="1" stop-color="#BBA8C1"/>
</linearGradient>
</defs>
</svg>
